# xmcd
#
# Track frame offsets:
# 150
# 13097
# 24542
# 39380
# 50692
# 61157
# 77792
# 89620
# 102342
# 125272
# 156837
# 167230
# 179045
# 191422
# 205547
# 219582
# 229912
# 241430
#
# Disc length: 3407 seconds
#
#
# Revision: 0
# Processed by: cddbd v1.5.1PL2 Copyright (c) Steve Scherf et al.
# Submitted via: FreeRIP 2.945 
#
DISCID=f70d4d12
DTITLE=Ray Charles - Blues Is My Middle Name
DYEAR=1997
DGENRE=Blues
TTITLE0=Baby Won't You Please Come Home
TTITLE1=She's On The Ball
TTITLE2=Hallelujah I Love Her So
TTITLE3=Margie
TTITLE4=Th' Ego Song
TTITLE5=I Believe To My Soul
TTITLE6=If I Give You My Love
TTITLE7=You Always Miss The Water (When The Well Runs Dry)
TTITLE8=What'd I Say
TTITLE9=Come Rain Or Come Shine
TTITLE10=I've Had My Fun (Going Down Slow)
TTITLE11=C C Rider
TTITLE12=I Love You, I Love You (I Will Never Let You Go)
TTITLE13=Baby Let Me Hold Your Hand
TTITLE14=This Love Of Mine
TTITLE15=Ain't That Fine
TTITLE16=Let The Good Time Roll
TTITLE17=Blues Is My Middle Name
EXTD=
EXTT0=
EXTT1=
EXTT2=
EXTT3=
EXTT4=
EXTT5=
EXTT6=
EXTT7=
EXTT8=
EXTT9=
EXTT10=
EXTT11=
EXTT12=
EXTT13=
EXTT14=
EXTT15=
EXTT16=
EXTT17=
PLAYORDER=
